<?xml version="1.0" encoding="iso-8859-1"?>
<!-- Generator: Adobe Illustrator 19.0.0, SVG Export Plug-In . SVG Version: 6.00 Build 0)  -->
<svg version="1.1" id="Layer_1" xmlns="http://www.w3.org/2000/svg" xmlns:xlink="http://www.w3.org/1999/xlink" x="0px" y="0px"
	 viewBox="0 0 347.807 347.807" style="enable-background:new 0 0 347.807 347.807;" xml:space="preserve">
<g>
	<g>
		<path d="M121.78,241.267H58.847l24.64-48.853l23.04,18.667c4.373,3.52,10.773-0.64,9.28-6.08L92.66,123.827
			c-0.853-2.773-3.52-4.587-6.4-4.16L4.98,131.293c-5.44,0.747-6.827,7.893-2.133,10.773l24.213,14.507l-19.733,35.52
			c-4.8,8.533-7.147,18.027-7.147,27.733c0,7.253,1.387,14.507,4.053,21.227l16.96,46.507c6.827,24,18.027,34.987,36.907,34.987
			h63.787c3.2,0,5.76-2.56,5.76-5.76v-69.653C127.54,243.827,124.98,241.267,121.78,241.267z M14.9,236.68
			c-2.133-5.333-3.2-11.093-3.2-16.96c0-7.787,1.92-15.36,5.653-22.187L39.86,157c1.493-2.667,0.64-6.187-2.133-7.787l-15.04-8.853
			l59.947-8.533l16.747,58.56L85.087,178.76c-2.88-2.347-7.147-1.387-8.853,1.92l-46.72,92.8L14.9,236.68z M116.02,310.813H57.993
			c-12.373,0-22.507-9.6-23.147-21.867l18.24-36.053h62.933V310.813z"/>
	</g>
</g>
<g>
	<g>
		<path d="M280.393,40.52L258.42,58.227l-26.56-30.933c-6.293-7.36-14.4-13.013-23.467-16.32c-6.827-2.56-14.08-3.733-21.333-3.627
			h-51.627C110.047,7.133,98.527,11.933,92.02,29.64L69.833,89.373c-1.067,2.987,0.427,6.293,3.413,7.467l65.173,24.213
			c2.987,1.067,6.293-0.427,7.467-3.413l21.867-58.987l37.333,40.107l-25.493,15.04c-4.907,2.88-3.093,10.347,2.56,10.773l84.16,6.4
			c2.88,0.213,5.547-1.707,6.08-4.587l17.28-80.107C290.847,40.947,284.66,37.107,280.393,40.52z M137.033,108.147L82.74,88.093
			L102.793,33.8c4.267-11.627,16.853-17.707,28.48-14.08l27.52,29.547L137.033,108.147z M262.047,119.133l-60.8-4.693l15.893-9.493
			c3.2-1.92,3.84-6.293,1.28-8.96l-70.827-76.053l39.68-0.853c5.76-0.107,11.52,0.853,16.96,2.88
			c7.253,2.667,13.76,7.147,18.773,13.013l30.187,35.2c2.027,2.347,5.547,2.667,8,0.747l13.653-10.987L262.047,119.133z"/>
	</g>
</g>
<g>
	<g>
		<path d="M347.167,215.453c-0.107-0.107-0.107-0.213-0.213-0.32c0-0.107-40.64-63.893-40.64-63.893
			c-1.813-2.667-5.44-3.52-8.107-1.707l-52.16,34.773c-2.88,1.92-3.413,5.76-1.28,8.427l38.827,48.533h-57.387V218.12
			c0-5.333-6.507-7.787-10.133-3.84l-52.267,57.813c0,0,0,0.107-0.107,0.107c-0.107,0.107-0.213,0.32-0.32,0.427l-0.107,0.107
			c-0.107,0.107-0.213,0.32-0.32,0.427c-0.107,0.107-0.107,0.107-0.107,0.213c-0.107,0.107-0.107,0.213-0.107,0.32
			c-0.107,0.107-0.107,0.213-0.107,0.32c0,0.107-0.107,0.107-0.107,0.32c-0.107,0.107-0.107,0.213-0.107,0.32
			c0,0.107-0.107,0.107-0.107,0.213s-0.107,0.213-0.107,0.32s0,0.107-0.107,0.213c0,0.107,0,0.213,0,0.32c0,0.107,0,0.107,0,0.32
			c0,0.107,0,0.213,0,0.32c0,0.107,0,0.213,0,0.32c0,0.107,0,0.107,0,0.32c0,0.213,0,0.213,0,0.32c0,0.107,0,0.107,0.107,0.213
			c0,0.107,0.107,0.213,0.107,0.32c0,0.107,0.107,0.107,0.107,0.213s0.107,0.213,0.107,0.32c0,0.107,0.107,0.107,0.107,0.32
			c0.107,0.107,0.107,0.213,0.107,0.32c0.107,0.107,0.107,0.213,0.107,0.32c0.107,0.107,0.107,0.107,0.107,0.213
			c0.107,0.107,0.107,0.32,0.32,0.427l0.107,0.107c0.107,0.107,0.213,0.32,0.32,0.427c0,0,0,0.107,0.107,0.107l52.16,57.92
			c3.52,3.947,10.133,1.387,10.133-3.84V311.56h42.667c13.013,0,25.387-4.907,34.773-13.867
			c15.253-14.507,28.587-34.347,38.4-58.347c0.213-0.427,2.24-5.227,2.667-6.293c0.96-2.133,1.707-4.373,2.24-6.613
			c0.427-1.6,0.64-3.307,0.747-5.013c0.213-1.386,0.213-2.346,0.213-3.307C347.807,217.373,347.593,216.52,347.167,215.453z
			 M295.54,288.52c-7.147,6.827-16.747,10.56-26.773,10.56h-48.533c-3.2,0-5.76,2.56-5.76,5.76v13.867l-38.613-42.88l38.613-42.88
			v13.973c0,3.2,2.56,5.76,5.76,5.76h92.693c3.413,0,6.827-0.427,9.92-1.387C315.273,266.44,305.887,278.707,295.54,288.52z
			 M331.593,231.773c-0.107,0.107-0.107,0.107-0.107,0.213c-4.16,5.547-10.987,9.173-18.453,9.173H298.42l-40.64-50.773
			l41.92-27.947l36.373,57.173C335.753,224.2,334.153,228.36,331.593,231.773z"/>
	</g>
</g>
<g>
</g>
<g>
</g>
<g>
</g>
<g>
</g>
<g>
</g>
<g>
</g>
<g>
</g>
<g>
</g>
<g>
</g>
<g>
</g>
<g>
</g>
<g>
</g>
<g>
</g>
<g>
</g>
<g>
</g>
</svg>
