<?xml version="1.0" encoding="iso-8859-1"?>
<!-- Generator: Adobe Illustrator 19.1.0, SVG Export Plug-In . SVG Version: 6.00 Build 0)  -->
<svg version="1.1" id="Capa_1" xmlns="http://www.w3.org/2000/svg" xmlns:xlink="http://www.w3.org/1999/xlink" x="0px" y="0px"
	 viewBox="0 0 107.915 107.915" style="enable-background:new 0 0 107.915 107.915;" xml:space="preserve">
<path d="M30.356,63.639H1.936C0.867,63.639,0,62.772,0,61.702c0-1.07,0.867-1.937,1.936-1.937h24.819
	C28.069,61.197,29.308,62.539,30.356,63.639z M107.801,83.8c-0.085,0.466-0.225,0.956-0.461,1.45
	c-0.119,0.247-0.261,0.492-0.429,0.729l-0.133,0.176l-0.068,0.087c-0.012,0.018-0.162,0.186-0.118,0.135l-0.175,0.187
	c-0.089,0.104-0.305,0.302-0.484,0.464c-0.197,0.183-0.355,0.302-0.517,0.429c-0.328,0.266-0.658,0.478-0.993,0.707
	c-0.671,0.424-1.356,0.818-2.064,1.159c-2.824,1.386-5.957,2.285-9.286,2.743c-1.666,0.229-3.367,0.337-5.065,0.363
	c-1.701,0.034-3.424-0.004-5.174-0.096c-3.499-0.188-7.111-0.604-10.793-1.402c-3.671-0.809-7.456-1.97-11.038-4.125
	c-0.884-0.559-1.762-1.158-2.583-1.875c-0.412-0.353-0.811-0.734-1.194-1.134l-0.563-0.62l-0.09-0.104l-0.057-0.071l-0.115-0.141
	l-0.229-0.283c-0.307-0.384-0.611-0.742-0.923-1.15c-0.312-0.414-0.625-0.828-0.938-1.244c-0.598-0.835-1.182-1.679-1.735-2.556
	c-0.1-0.157-0.191-0.321-0.289-0.479H23.809c-1.069,0-1.937-0.867-1.937-1.937c0-1.07,0.867-1.937,1.937-1.937h38.544
	c1.07,0,1.936,0.867,1.936,1.937c0,1.07-0.867,1.937-1.936,1.937h-5.286c0.158,0.226,0.315,0.453,0.474,0.676l0.83,1.101
	c0.281,0.369,0.608,0.755,0.908,1.13l0.23,0.283l0.115,0.141l0.057,0.071c-0.026-0.031,0.023,0.024,0.031,0.032l0.415,0.455
	c0.286,0.297,0.586,0.585,0.905,0.857c0.63,0.552,1.34,1.035,2.065,1.494c2.965,1.787,6.402,2.881,9.8,3.632
	c3.412,0.747,6.836,1.153,10.154,1.337c1.659,0.09,3.294,0.13,4.888,0.101c1.596-0.021,3.127-0.119,4.6-0.317
	c2.943-0.395,5.719-1.199,8.081-2.356c0.594-0.283,1.144-0.603,1.663-0.927c0.244-0.169,0.504-0.333,0.713-0.506
	c0.111-0.085,0.229-0.175,0.283-0.229c0.075-0.07,0.126-0.089,0.262-0.243l0.146-0.155l0.005-0.007l0.022-0.027
	c0.028-0.04,0.056-0.088,0.084-0.144c0.056-0.115,0.106-0.272,0.14-0.458c0.069-0.373,0.07-0.847,0-1.328
	c-0.134-0.968-0.503-1.97-0.975-2.771c-0.241-0.405-0.489-0.741-0.766-1.01c0.092,0.038-0.323-0.199-0.74-0.325
	c-0.87-0.289-1.881-0.496-2.833-0.669c-0.961-0.172-1.9-0.308-2.795-0.427c-3.593-0.463-6.481-0.688-8.451-0.873
	c-0.996-0.093-1.759-0.165-2.273-0.213c-0.094-0.01-0.17-0.019-0.248-0.027c-0.794,0.712-1.395,1.057-1.809,1.308
	c-0.448,0.272-0.678,0.387-0.678,0.387l-0.027,0.014c-0.824,0.414-1.828,0.082-2.243-0.742c-0.327-0.65-0.187-1.414,0.291-1.911
	c0,0,0.193-0.2,0.565-0.541c0.351-0.349,0.928-0.831,1.399-1.372c0.115-0.131,0.217-0.27,0.296-0.391
	c0.023-0.03,0.044-0.065,0.061-0.097c-0.006-0.035-0.012-0.069-0.021-0.107c-0.052-0.242-0.13-0.537-0.224-0.849
	c-0.38-1.26-0.955-2.787-1.624-4.474c-0.674-1.691-1.458-3.563-2.337-5.593c-0.445-1.014-0.909-2.069-1.389-3.164
	c-0.357-0.818-0.493-1.532-0.622-2.218c-0.123-0.689-0.199-1.357-0.265-2.035c-0.247-2.696-0.277-5.477-0.219-8.419
	c0.032-1.471,0.093-2.975,0.201-4.528c0.055-0.778,0.121-1.565,0.218-2.386l0.084-0.635l0.056-0.353l0.054-0.295l0.007-0.036
	c-0.094-0.049-0.249-0.108-0.443-0.145c-0.45-0.092-1.044-0.071-1.553,0.063c-0.113,0.03-0.281,0.084-0.333,0.106
	c0.009-0.011-0.212,0.093-0.197,0.083l-0.243,0.119c-0.354,0.185-0.71,0.37-1.067,0.557c-0.737,0.392-1.501,0.799-2.287,1.195
	c-1.576,0.791-3.229,1.564-5.096,2.146c-0.938,0.285-1.928,0.531-3.056,0.606c-0.531,0.042-1.281,0.01-1.772-0.077
	c-0.465-0.074-0.934-0.156-1.406-0.247c-1.886-0.36-3.876-0.963-5.688-1.83c-0.456-0.21-0.899-0.436-1.337-0.665
	c-0.44-0.231-0.886-0.478-1.285-0.703c-0.99-0.555-1.917-1.295-2.68-2.096c-1.538-1.625-2.676-3.511-3.387-5.691
	c-0.177-0.549-0.309-1.121-0.406-1.741l-0.054-0.538l-0.02-0.262l-0.002-0.184l-0.002-0.184l-0.001-0.092l0.003-0.196l0.023-0.404
	c0.07-1.062,0.192-2.051,0.285-3.01c0.092-0.947,0.167-1.895,0.115-2.641c-0.013-0.181-0.034-0.349-0.061-0.47
	c-0.014-0.059-0.027-0.107-0.038-0.141c-0.002-0.005-0.003-0.007-0.004-0.011c-0.1-0.153-0.278-0.348-0.494-0.51
	c-0.477-0.365-1.084-0.592-1.729-0.633c-0.324-0.021-0.663,0.005-1.01,0.07c-0.173,0.028-0.35,0.091-0.527,0.129
	c-0.158,0.066-0.277,0.093-0.472,0.172l-0.347,0.161l-0.173,0.081l-0.036,0.017c0.008-0.003-0.054,0.029-0.047,0.027l-0.566,0.319
	c-0.396,0.254-0.79,0.493-1.194,0.779c-0.804,0.543-1.612,1.146-2.419,1.75c-1.614,1.219-3.225,2.501-4.843,3.795
	c-1.623,1.301-3.253,2.607-4.888,3.917c-0.831,0.654-1.663,1.308-2.496,1.964l-1.259,0.966c-0.435,0.332-0.805,0.61-1.147,0.906
	c-0.691,0.592-1.298,1.234-1.707,1.89c-0.406,0.66-0.625,1.297-0.615,1.933c-0.001,0.636,0.208,1.326,0.607,2.04
	c0.401,0.712,0.973,1.423,1.625,2.108c0.264,0.278,0.553,0.556,0.842,0.827h-5.285c-0.223-0.318-0.439-0.646-0.638-0.999
	c-0.63-1.121-1.113-2.497-1.11-3.979c-0.016-1.486,0.516-2.91,1.221-4.029c0.713-1.131,1.59-2.019,2.49-2.795
	c0.455-0.391,0.927-0.743,1.326-1.049l1.241-0.95c0.817-0.642,1.632-1.283,2.447-1.923c1.633-1.307,3.26-2.609,4.882-3.907
	c1.63-1.301,3.26-2.597,4.934-3.86c0.843-0.629,1.682-1.256,2.576-1.86c0.433-0.306,0.912-0.6,1.378-0.896l0.768-0.433
	c0.065-0.034-0.01,0,0.171-0.09l0.087-0.04l0.173-0.08l0.347-0.161c0.274-0.117,0.64-0.247,0.958-0.359
	c0.317-0.081,0.625-0.178,0.953-0.235c0.651-0.123,1.329-0.177,2.016-0.131c1.375,0.089,2.743,0.58,3.862,1.441
	c0.56,0.434,1.073,0.949,1.499,1.65c0.057,0.101,0.146,0.274,0.202,0.404l0.121,0.316c0.068,0.204,0.119,0.397,0.16,0.582
	c0.079,0.368,0.115,0.698,0.138,1.014c0.077,1.248-0.032,2.289-0.126,3.31c-0.1,1.011-0.218,1.979-0.277,2.876l-0.018,0.321
	l0.001,0.089l0.002,0.184l0.002,0.184c0.003,0.047,0.011,0.068,0.015,0.103c0.01,0.063,0.017,0.127,0.022,0.191
	c0.057,0.345,0.138,0.726,0.261,1.102c0.485,1.519,1.383,3.017,2.469,4.151c0.553,0.575,1.123,1.028,1.776,1.398
	c0.422,0.239,0.798,0.447,1.187,0.651c0.392,0.205,0.781,0.404,1.171,0.583c1.552,0.738,3.109,1.212,4.785,1.539
	c0.418,0.081,0.84,0.155,1.265,0.223c0.399,0.057,0.551,0.053,0.912,0.037c0.659-0.039,1.41-0.21,2.156-0.439
	c1.503-0.465,3.014-1.156,4.486-1.897c0.739-0.371,1.47-0.761,2.214-1.156c0.387-0.201,0.771-0.402,1.155-0.601l0.316-0.155
	c0.206-0.09,0.17-0.08,0.374-0.161c0.332-0.134,0.56-0.198,0.844-0.277c1.085-0.272,2.162-0.33,3.299-0.112
	c0.567,0.114,1.16,0.305,1.762,0.669c0.594,0.362,1.232,0.965,1.566,1.799c0.168,0.405,0.255,0.844,0.265,1.242
	c0.013,0.207-0.006,0.389-0.02,0.582l-0.07,0.436L80.4,38.051l-0.034,0.226l-0.069,0.521c-0.086,0.718-0.149,1.459-0.201,2.193
	c-0.104,1.47-0.163,2.925-0.195,4.341c-0.059,2.828-0.025,5.533,0.198,7.964c0.058,0.603,0.126,1.193,0.223,1.73
	c0.095,0.536,0.214,1.03,0.345,1.314c0.485,1.107,0.953,2.174,1.403,3.2c0.889,2.058,1.685,3.96,2.377,5.702
	c0.691,1.748,1.284,3.31,1.733,4.799c0.112,0.376,0.214,0.748,0.301,1.155c0.033,0.162,0.063,0.334,0.089,0.525
	c0.341,0.031,0.719,0.066,1.15,0.106c1.971,0.181,4.875,0.4,8.614,0.873c0.936,0.122,1.925,0.263,2.974,0.448
	c1.055,0.193,2.147,0.4,3.394,0.806c0.316,0.107,0.642,0.227,1.006,0.4c0.186,0.092,0.372,0.185,0.589,0.326
	c0.101,0.062,0.223,0.152,0.336,0.239l0.186,0.159l0.132,0.127c0.554,0.54,1.009,1.165,1.381,1.792
	c0.742,1.271,1.259,2.648,1.492,4.228C107.934,82.014,107.966,82.865,107.801,83.8z M44.666,20.603
	c-0.006-0.01-0.015-0.022-0.022-0.032C44.655,20.591,44.666,20.609,44.666,20.603z M76.648,36.903
	c-0.006-0.003,0.004-0.018-0.002-0.007C76.647,36.896,76.648,36.902,76.648,36.903L76.648,36.903z M10.633,50.127h12.411
	c1.273,1.34,2.537,2.704,3.795,4.074c1.424,1.551,2.845,3.099,4.262,4.642c0.72,0.776,1.423,1.536,2.174,2.319l0.554,0.575
	l0.58,0.586c0.48,0.473,1.037,0.9,1.637,1.242c1.206,0.698,2.52,1.009,3.651,1.171c1.142,0.165,2.154,0.227,3.033,0.378
	c0.882,0.146,1.614,0.373,2.247,0.74c0.321,0.184,0.619,0.407,0.864,0.619l0.279,0.263l0.183,0.199
	c0.144,0.161,0.3,0.311,0.436,0.48c0.705,0.832,1.298,1.809,1.868,2.876h4.483c-0.871-1.735-1.817-3.685-3.304-5.451
	c-0.185-0.226-0.394-0.435-0.591-0.652l-0.15-0.161l-0.075-0.081l-0.116-0.115l-0.279-0.262c-0.52-0.466-1.05-0.85-1.618-1.176
	c-1.144-0.663-2.418-1.022-3.565-1.208c-1.154-0.191-2.207-0.253-3.113-0.388c-0.912-0.131-1.648-0.336-2.25-0.683
	c-0.303-0.173-0.58-0.382-0.841-0.64l-0.519-0.524l-0.532-0.551c-0.694-0.723-1.411-1.495-2.115-2.253
	c-1.415-1.539-2.834-3.083-4.256-4.629c-0.425-0.462-0.854-0.924-1.282-1.386h9.628c1.07,0,1.937-0.867,1.937-1.937
	s-0.867-1.937-1.937-1.937H10.633c-1.07,0-1.936,0.867-1.936,1.937S9.563,50.127,10.633,50.127z"/>
<g>
</g>
<g>
</g>
<g>
</g>
<g>
</g>
<g>
</g>
<g>
</g>
<g>
</g>
<g>
</g>
<g>
</g>
<g>
</g>
<g>
</g>
<g>
</g>
<g>
</g>
<g>
</g>
<g>
</g>
</svg>
